<?xml version="1.0" standalone="no"?>
<!DOCTYPE svg PUBLIC "-//W3C//DTD SVG 20010904//EN"
 "http://www.w3.org/TR/2001/REC-SVG-20010904/DTD/svg10.dtd">
<svg version="1.0" xmlns="http://www.w3.org/2000/svg"
 width="302.000000pt" height="233.000000pt" viewBox="0 0 302.000000 233.000000"
 preserveAspectRatio="xMidYMid meet">
<metadata>
Created by potrace 1.15, written by Peter Selinger 2001-2017
</metadata>
<g transform="translate(0.000000,233.000000) scale(0.100000,-0.100000)"
fill="#000000" stroke="none">
<path d="M1073 2156 c-585 -95 -1065 -175 -1068 -178 -5 -5 292 -1969 299
-1976 4 -3 2190 369 2195 374 2 2 -66 441 -150 976 l-154 973 -30 2 c-17 1
-508 -76 -1092 -171z m-185 -368 c7 -7 12 -35 12 -63 0 -28 -5 -56 -12 -63 -7
-7 -39 -12 -73 -12 -34 0 -66 5 -73 12 -16 16 -16 110 0 126 16 16 130 16 146
0z m1093 -248 c68 -13 156 -55 170 -82 13 -25 -2 -66 -37 -98 l-23 -23 -63 28
c-119 54 -230 30 -287 -61 -58 -90 -47 -205 26 -276 48 -47 79 -58 156 -58 50
0 74 6 123 31 35 18 69 29 78 26 22 -9 57 -68 54 -92 -4 -28 -76 -78 -144
-100 -170 -55 -366 7 -451 142 -44 69 -57 118 -57 208 0 69 5 90 31 147 76
161 241 242 424 208z m-520 -10 c16 -9 19 -22 19 -74 0 -75 -6 -82 -80 -96
-30 -6 -63 -18 -74 -28 -73 -62 -86 -107 -86 -296 0 -192 -4 -200 -87 -204
-98 -5 -93 -23 -93 348 0 364 -3 350 82 350 72 0 88 -17 88 -94 l0 -61 16 31
c22 45 86 103 130 119 48 17 60 18 85 5z m-580 -10 c18 -10 19 -25 19 -387 0
-259 -4 -388 -12 -415 -18 -60 -79 -123 -144 -147 -60 -23 -153 -28 -172 -9
-7 7 -12 36 -12 65 0 59 0 59 88 82 78 21 77 15 80 431 2 326 4 366 19 378 20
15 107 16 134 2z"/>
<path d="M2638 1516 c-104 -30 -145 -79 -100 -120 19 -16 23 -16 83 10 156 66
289 12 289 -117 l0 -36 -97 -6 c-224 -15 -331 -75 -354 -201 -19 -105 39 -200
142 -230 110 -33 189 -15 266 59 l52 50 3 -50 3 -50 45 0 45 0 3 229 c3 256
-5 323 -46 381 -44 63 -100 89 -202 92 -50 1 -104 -3 -132 -11z m272 -394 c0
-69 -49 -164 -102 -199 -82 -54 -190 -37 -230 38 -63 117 50 203 275 208 l57
1 0 -48z"/>
</g>
</svg>
